<svg width="69" height="39" viewBox="0 0 69 39" fill="none" xmlns="http://www.w3.org/2000/svg">
<g filter="url(#filter0_d_2_342)">
<mask id="path-1-inside-1_2_342" fill="white">
<path fill-rule="evenodd" clip-rule="evenodd" d="M4 23C4 25.2091 5.79086 27 8 27H27.875L34 34L40.125 27H61C63.2091 27 65 25.2091 65 23V7C65 4.79086 63.2091 3 61 3H8C5.79086 3 4 4.79086 4 7V23Z"/>
</mask>
<path fill-rule="evenodd" clip-rule="evenodd" d="M4 23C4 25.2091 5.79086 27 8 27H27.875L34 34L40.125 27H61C63.2091 27 65 25.2091 65 23V7C65 4.79086 63.2091 3 61 3H8C5.79086 3 4 4.79086 4 7V23Z" fill="#28A3B3"/>
<path d="M27.875 27L28.6276 26.3415L28.3288 26H27.875V27ZM34 34L33.2474 34.6585L34 35.5186L34.7526 34.6585L34 34ZM40.125 27V26H39.6712L39.3724 26.3415L40.125 27ZM8 26C6.34315 26 5 24.6569 5 23H3C3 25.7614 5.23857 28 8 28V26ZM27.875 26H8V28H27.875V26ZM34.7526 33.3415L28.6276 26.3415L27.1224 27.6585L33.2474 34.6585L34.7526 33.3415ZM39.3724 26.3415L33.2474 33.3415L34.7526 34.6585L40.8776 27.6585L39.3724 26.3415ZM61 26H40.125V28H61V26ZM64 23C64 24.6569 62.6569 26 61 26V28C63.7614 28 66 25.7614 66 23H64ZM64 7V23H66V7H64ZM61 4C62.6569 4 64 5.34315 64 7H66C66 4.23858 63.7614 2 61 2V4ZM8 4H61V2H8V4ZM5 7C5 5.34315 6.34315 4 8 4V2C5.23858 2 3 4.23858 3 7H5ZM5 23V7H3V23H5Z" fill="white" mask="url(#path-1-inside-1_2_342)"/>
</g>
<defs>
<filter id="filter0_d_2_342" x="0" y="0" width="69" height="39" filterUnits="userSpaceOnUse" color-interpolation-filters="sRGB">
<feFlood flood-opacity="0" result="BackgroundImageFix"/>
<feColorMatrix in="SourceAlpha" type="matrix" values="0 0 0 0 0 0 0 0 0 0 0 0 0 0 0 0 0 0 127 0" result="hardAlpha"/>
<feOffset dy="1"/>
<feGaussianBlur stdDeviation="2"/>
<feComposite in2="hardAlpha" operator="out"/>
<feColorMatrix type="matrix" values="0 0 0 0 0 0 0 0 0 0 0 0 0 0 0 0 0 0 0.25 0"/>
<feBlend mode="normal" in2="BackgroundImageFix" result="effect1_dropShadow_2_342"/>
<feBlend mode="normal" in="SourceGraphic" in2="effect1_dropShadow_2_342" result="shape"/>
</filter>
</defs>
</svg>
